<svg class="octocat-icon" viewBox="25 13 29 28" version="1.1" xmlns="http://www.w3.org/2000/svg" xmlns:xlink="http://www.w3.org/1999/xlink"> <desc>GitHub octocat</desc> <defs> <path d="M39.6082256,13.8440401 C31.9666798,13.8440401 25.7695,20.0403702 25.7695,27.6844649 C25.7695,33.7992308 29.7347095,38.986204 35.2343455,40.8163007 C35.9267915,40.9437448 36.1791307,40.5163824 36.1791307,40.1493435 C36.1791307,39.8213874 36.167236,38.9505197 36.1604389,37.7958765 C32.3107787,38.6319096 31.4985353,35.940291 31.4985353,35.940291 C30.8689616,34.3412929 29.9615599,33.9156297 29.9615599,33.9156297 C28.7049615,33.0575064 30.0567181,33.0744989 30.0567181,33.0744989 C31.4458584,33.1722061 32.1765377,34.5010228 32.1765377,34.5010228 C33.4110458,36.6157445 35.4161656,36.0048627 36.2046196,35.6505682 C36.3303644,34.7567605 36.6880574,34.1467283 37.0831339,33.8009301 C34.0100329,33.4517334 30.7789011,32.2639547 30.7789011,26.9605826 C30.7789011,25.4499457 31.3184143,24.2137383 32.2037257,23.2468627 C32.0609884,22.8968164 31.5860469,21.4889844 32.3396661,19.5841205 C32.3396661,19.5841205 33.5011062,19.2119838 36.1451457,21.0029977 C37.2488112,20.6954327 38.4331913,20.5424998 39.6099248,20.5365524 C40.7858087,20.5424998 41.9693392,20.6954327 43.074704,21.0029977 C45.7170441,19.2119838 46.8767851,19.5841205 46.8767851,19.5841205 C47.6321035,21.4889844 47.157162,22.8968164 47.0152743,23.2468627 C47.9022849,24.2137383 48.43755,25.4499457 48.43755,26.9605826 C48.43755,32.2775488 45.2013205,33.4474852 42.1188735,33.7898849 C42.6150557,34.2172473 43.0577114,35.0617766 43.0577114,36.3532098 C43.0577114,38.2028479 43.0407189,39.6956426 43.0407189,40.1493435 C43.0407189,40.5197809 43.2905092,40.9505418 43.9923012,40.8154511 C49.487689,38.9811063 53.4495,33.7975316 53.4495,27.6844649 C53.4495,20.0403702 47.2523202,13.8440401 39.6082256,13.8440401" id="path-1"></path> </defs> <g id="Github-Octocat" stroke="none" fill="none" fill-rule="evenodd"> <use fill="currentColor" xlink:href="#path-1"></use> <use fill="currentColor" xlink:href="#path-1"></use> </g> </svg>
